<?xml version="1.0" encoding="utf-8"?>
<!-- Generator: Adobe Illustrator 28.1.0, SVG Export Plug-In . SVG Version: 6.00 Build 0)  -->
<svg version="1.1" id="Layer_1" xmlns="http://www.w3.org/2000/svg" xmlns:xlink="http://www.w3.org/1999/xlink" x="0px" y="0px"
	 viewBox="0 0 300 300" style="enable-background:new 0 0 300 300;" xml:space="preserve">
<style type="text/css">
	.st0{fill:#F16728;}
</style>
<path class="st0" d="M281.3,134.2c8.4-7.1,12.6-16.7,12.6-28.3c0-13.8-6.9-25.2-20.7-34l10.7-2l5.7-1v-5.8
	c0-23.8-14.3-36.9-40.2-36.9c-12.4,0-22.7,3.3-30.6,9.9c-8.2,6.9-12.4,16.1-12.4,27.2c0,7.2,1.8,15.8,8.1,23.8
	c-12.4-4.3-26-7.1-40.2-8.3c-6.7-1.9-13.9-3-21.6-3c-10.2,0-20.2,2.2-30,6.4c0.7-4.3,1.5-8.5,2.2-12.8h69.9h0.5h6.1l0.8-6l0.1-0.5
	l6.1-33.4l0.1-0.6l1.5-8.2h-8.3H201h-94h-0.5h-5.7l-1.1,5.6L99.6,27l-14.2,81.7l-7.4-6.3l6.6-7.7l0,0l3.3-3.9
	C37.1,105.5,1.3,141.8,2,183.6c0.9,54,62.1,96.7,136.7,95.5c16.8-0.3,32.8-2.8,47.5-7l32.9-56.1l-39.8-23.3
	c6.4-2.7,12.2-6.1,17.3-10.3c5.7-4.8,10.2-10.3,13.6-16.5c17.8,10.4,35.6,20.8,53.4,31.2c-3.2,5.4-6.4,10.8-9.5,16.2
	c-0.2,0.3-0.4,0.6-0.6,0.9l-16.9,28.7l-2.1,3.6l3.6-2.1c31.8-18.3,49.8-45.6,49.3-74.8c-0.2-11.7-3.5-22.9-9.1-33.1
	C279.3,135.6,280.4,135,281.3,134.2z M47.7,143.7c-0.2-13.4,14.6-25.5,37.4-33l-0.5,3.1l-0.1,0.6l-1,6.3l6.2,1.5l0.5,0.1l18.6,4.5
	l0.5,0.1l2.7,0.6l-2.6,0.5l-0.8,0.2l-20.8,4.3l-0.5,0.1l-4.2,1l-1,4.2l-0.1,0.4c-1.2,6-1.8,11.1-1.8,15.3c0,7.1,1.3,14.7,5.1,21.6
	C62.7,168.4,47.9,156.9,47.7,143.7z M192.2,177c-5.8,4.9-12.7,8.6-20.6,11.1l-14.2-8.3c-7.1,1-14.5,1.6-22.2,1.7
	c-14.2,0.2-27.7-1.1-39.6-3.7c-5.7-6.1-8.6-14.2-8.6-24.2c0-3.7,0.5-8.3,1.6-13.7l0.1-0.4l0.3-0.1l20.8-4.4l0.8-0.2l-0.2,0.8
	c-1.3,6.3-2,12.3-2,17.5c0,15.8,8.2,23.4,25,23.4c19.9,0,30-14.4,30-42.9c0-20.3-8.3-30.2-25.5-30.2c-10.1,0-19.3,5.5-27.2,16.2
	l-0.2,0.3l-0.4-0.1l-18.6-4.5l-0.5-0.1l0.1-0.5l15.1-86.7l0.1-0.5h0.5h94h0.7l-0.1,0.7l-6.1,33.8l-0.1,0.5h-0.5h-75.7
	c-1.9,10.9-3.8,21.8-5.7,32.6c12.6-8.3,25.8-12.4,39.2-12.4c16.8,0,30.7,5,41.5,14.9c8.6,7.9,13.8,17.7,15.5,29.1v0c0,0,0,0.1,0,0.1
	c0.2,1.4,0.4,2.8,0.5,4.2c0.1,1.5,0.2,3.1,0.2,4.7C210.5,153,204.3,166.8,192.2,177z M114.2,127l2-2.7l0.2-0.3
	c6.6-9,13.9-13.5,21.7-13.5c9.6,0,18.5,2.8,18.5,23.2c0,36-16.8,36-23.1,36c-15,0-18.1-6.6-18.1-16.5c0-4.8,0.6-10.3,1.8-16.1
	l0.2-0.8l2.2-10.4L114.2,127z M213.2,159.2c2.7-7.1,4.2-14.9,4.2-23.4c0,0,0-0.1,0-0.1c4.1,3.2,9.6,5.9,16.9,7.4
	C230.5,149,223.3,154.6,213.2,159.2z M249.7,137.6c-4.8,0-8.9-0.5-12.8-1.2h0c-9.7-1.8-16.5-5.7-20.5-11.9c0,0,0,0,0-0.1
	c0,0,0,0,0,0c-2.3-3.6-3.6-8-4-13.2c0,0,0-0.1,0-0.1c-0.1-0.9-0.2-1.7-0.2-2.6c0-0.2,0-0.4,0-0.6c0-1.5,0.1-3.2,0.3-5.2l14.1-3.1
	c-1.1,4.3-1.6,8-1.6,11.2c0,1.5,0.1,2.9,0.3,4.3c0.2,1.6,0.7,3,1.2,4.3c0.1,0.2,0.2,0.4,0.4,0.7c0.5,1,1.1,2,1.8,2.9
	c0.2,0.2,0.3,0.4,0.5,0.6c0.8,0.9,1.6,1.6,2.6,2.3c0.2,0.1,0.3,0.2,0.4,0.3c1.2,0.7,2.5,1.4,3.9,1.9c2.9,1,6.3,1.6,10.4,1.6
	c11.1,0,16.8-4.2,17.1-12.7c0-0.3,0.1-0.6,0.1-0.9c0-6.7-6.9-12.6-20.6-17.7c-19.9-7.3-29.8-18.9-29.8-35c0-9.1,3.3-16.4,9.9-21.9
	c6.6-5.6,15.3-8.3,26.1-8.3c22.2,0,33.3,10,33.3,29.9l-13.6,2.5c0.6-2.7,0.9-5,0.9-6.8c0-11.7-7.1-17.6-21.4-17.6
	c-11.3,0-16.9,4-16.9,12.1c0,6.1,6.3,11.3,18.8,15.6c24.2,8.3,36.4,20.7,36.4,37c0,9.6-3.4,17.2-10.2,23
	C270,134.7,260.9,137.6,249.7,137.6z M263.1,58.8c0,1.3-0.3,3.1-0.7,5.3l-0.4,1.8c-2.8-1.3-5.9-2.4-9.1-3.5
	c-11.2-3.9-14.2-7.5-14.2-9.1c0-2.1,0-5.2,9.9-5.2C262,48.1,263.1,53.6,263.1,58.8z"/>
</svg>
